<?xml version="1.0" encoding="UTF-8"?><svg width="16" height="16" version="1.1" viewBox="0 0 16 16" xmlns="http://www.w3.org/2000/svg" xmlns:xlink="http://www.w3.org/1999/xlink"><!--Generated by IJSVG (https://github.com/iconjar/IJSVG)--><g transform="scale(0.16)"><path fill="#000" d="M75.9,19.2c-0.9,0 -1.6,0.3 -2.3,0.9c-0.7,0.5 -0.9,1.5 -0.9,2.3c0,0.9 0.3,1.6 0.9,2.3c1.2,1.2 3.5,1.2 4.7,0c0.7,-0.5 0.9,-1.5 0.9,-2.4c0,-0.8 -0.4,-1.6 -0.9,-2.2c-0.6,-0.6 -1.6,-0.9 -2.4,-0.9Z"></path><path fill="#000" d="M50.1,32.3c-9.9,0 -17.7,8 -17.7,17.7c0,9.7 7.8,17.7 17.7,17.7c9.7,0 17.7,-8 17.7,-17.7c-1.42109e-14,-9.8 -8,-17.7 -17.7,-17.7Z"></path><path fill="#000" d="M69.4,2.5h-38.8c-15.6,0 -28.1,12.5 -28.1,28.1v38.8c0,15.6 12.5,28.1 28.1,28.1h38.8c15.6,0 28.1,-12.5 28.1,-28.1v-38.8c0,-15.6 -12.5,-28.1 -28.1,-28.1Zm-19.3,70.8c-12.9,0 -23.3,-10.6 -23.3,-23.3c0,-12.7 10.4,-23.3 23.3,-23.3c12.7,0 23.1,10.6 23.1,23.3c0,12.7 -10.3,23.3 -23.1,23.3Zm34.9,-50.7c-0.1,2.4 -1.1,4.6 -2.7,6.2c-1.6,1.6 -3.9,2.6 -6.4,2.6c-2.4,0 -4.6,-0.9 -6.4,-2.6c-1.6,-1.6 -2.6,-3.9 -2.6,-6.4c0,-2.5 0.9,-4.6 2.6,-6.4c1.6,-1.6 3.9,-2.6 6.4,-2.6c2.4,0 4.7,0.9 6.4,2.7c1.6,1.9 2.7,4.1 2.7,6.5c0,-0.1 0,0 0,0Z"></path></g></svg>